<?xml version="1.0" standalone="no"?>
<!DOCTYPE svg PUBLIC "-//W3C//DTD SVG 20010904//EN"
 "http://www.w3.org/TR/2001/REC-SVG-20010904/DTD/svg10.dtd">
<svg version="1.0" xmlns="http://www.w3.org/2000/svg"
 width="401.000000pt" height="401.000000pt" viewBox="0 0 401.000000 401.000000"
 preserveAspectRatio="xMidYMid meet">
<metadata>
Created by potrace 1.14, written by Peter Selinger 2001-2017
</metadata>
<g transform="translate(0.000000,401.000000) scale(0.100000,-0.100000)"
fill="#000000" stroke="none">
<path d="M1800 3939 c-30 -4 -75 -10 -99 -13 -239 -30 -631 -190 -826 -338
-255 -193 -436 -395 -570 -633 -43 -76 -57 -105 -121 -252 -13 -30 -69 -203
-80 -248 -3 -11 -16 -81 -28 -155 -32 -190 -33 -431 -1 -625 86 -529 396
-1013 840 -1312 406 -273 896 -383 1385 -313 183 27 432 105 570 178 25 13 68
36 95 50 183 94 480 348 585 499 8 11 40 56 71 100 154 218 267 487 313 743 8
47 18 101 22 120 13 73 12 395 -2 499 -48 363 -199 711 -428 990 -87 106 -213
231 -302 298 -285 218 -555 337 -904 398 -106 19 -429 28 -520 14z"/>
</g>
</svg>
